:FULLY-SPECIFIED
:FORCE-ALL-JOINTS-BE-3DOF
:DEGREES
2752
root -5.55334 13.9703 -28.3997 161.999 -65.1913 -161.084
lfemur -59.4025 42.9143 -6.32505
ltibia 67.751 0 0
lfoot -2.39236 -1.25445 0.000325832
ltoes -31.3514 0 0
rfemur -30.8956 -18.5472 21.7092
rtibia 81.6811 0 0
rfoot -34.955 -24.7451 0.00134739
rtoes -14.5677 0 0
lowerback 15.7608 5.82338 0.554602
upperback -4.01076 8.13 1.48661
thorax -13.4705 3.80444 -0.861532
lowerneck -2.40251 9.6188 2.06075
upperneck 7.48839 12.5811 1.97966
head 2.79791 6.35069 0.685615
lclavicle 2.38101e-14 -6.18764e-15 1.7951e-32
lhumerus 3.54699 10.6623 83.9492
lradius 94.813 0 0
lwrist -19.1432 0 0
lhand -39.8061 27.6245 3.77687e-05
lfingers 7.12502 0 0
lthumb -12.7808 57.214 3.63747e-05
rclavicle 2.38101e-14 -6.18764e-15 1.7951e-32
rhumerus -57.8477 50.9323 -110.145
rradius 114.094 0 0
rwrist -84.6914 0 0
rhand 4.59356 -26.9798 -4.64635e-05
rfingers 7.12502 0 0
rthumb 29.9822 -54.5702 -3.29889e-05
2753
root -5.56213 13.9602 -28.4066 162.011 -65.196 -161.09
lfemur -59.4354 42.939 -6.32824
ltibia 67.8094 0 0
lfoot -2.41277 -1.28264 0.000368564
ltoes -31.3541 0 0
rfemur -30.8915 -18.5586 21.7011
rtibia 81.7162 0 0
rfoot -34.9948 -24.755 0.00154972
rtoes -14.5766 0 0
lowerback 15.7511 5.82317 0.549203
upperback -4.0158 8.12862 1.48628
thorax -13.4713 3.8043 -0.857868
lowerneck -2.40165 9.6185 2.06155
upperneck 7.49688 12.5804 1.98051
head 2.80065 6.35038 0.686024
lclavicle 2.39532e-14 -6.15933e-15 2.11328e-32
lhumerus 3.54952 10.6742 83.9487
lradius 94.8033 0 0
lwrist -19.1558 0 0
lhand -39.8048 27.6249 4.35434e-05
lfingers 7.12502 0 0
lthumb -12.7795 57.2146 4.1935e-05
rclavicle 2.39532e-14 -6.15933e-15 2.11328e-32
rhumerus -57.8626 50.9143 -110.156
rradius 114.097 0 0
rwrist -84.6818 0 0
rhand 4.6083 -26.9719 -5.49627e-05
rfingers 7.12502 0 0
rthumb 29.9963 -54.5599 -3.9804e-05
2754
root -5.57092 13.9501 -28.4135 162.021 -65.1997 -161.095
lfemur -59.4612 42.9586 -6.33033
ltibia 67.8561 0 0
lfoot -2.4291 -1.30512 0.000420477
ltoes -31.3562 0 0
rfemur -30.8884 -18.5674 21.6947
rtibia 81.7448 0 0
rfoot -35.0269 -24.7632 0.00172276
rtoes -14.5829 0 0
lowerback 15.7434 5.823 0.544934
upperback -4.01977 8.12752 1.48608
thorax -13.4719 3.80418 -0.854891
lowerneck -2.40105 9.61828 2.0622
upperneck 7.50382 12.5799 1.98112
head 2.80291 6.35015 0.686342
lclavicle 2.40509e-14 -6.13538e-15 2.38336e-32
lhumerus 3.5512 10.6836 83.9483
lradius 94.7959 0 0
lwrist -19.1653 0 0
lhand -39.8037 27.6256 4.81205e-05
lfingers 7.12502 0 0
lthumb -12.7785 57.2153 4.63454e-05
rclavicle 2.40509e-14 -6.13538e-15 2.38336e-32
rhumerus -57.874 50.9005 -110.164
rradius 114.099 0 0
rwrist -84.6747 0 0
rhand 4.62004 -26.9658 -5.79973e-05
rfingers 7.12502 0 0
rthumb 30.0075 -54.5517 -4.05459e-05
2755
root -5.57971 13.9399 -28.4205 162.027 -65.2026 -161.099
lfemur -59.4809 42.9737 -6.33133
ltibia 67.8924 0 0
lfoot -2.44184 -1.32256 0.000489658
ltoes -31.3578 0 0
rfemur -30.8859 -18.5739 21.6898
rtibia 81.7679 0 0
rfoot -35.0521 -24.7699 0.00187598
rtoes -14.5869 0 0
lowerback 15.7375 5.82285 0.54167
upperback -4.0228 8.12667 1.48602
thorax -13.4723 3.8041 -0.852508
lowerneck -2.40071 9.61811 2.06274
upperneck 7.50944 12.5795 1.98152
head 2.80478 6.34997 0.686579
lclavicle 2.41047e-14 -6.11496e-15 2.61053e-32
lhumerus 3.55208 10.6909 83.9481
lradius 94.7906 0 0
lwrist -19.1717 0 0
lhand -39.8029 27.6265 5.16347e-05
lfingers 7.12502 0 0
lthumb -12.7777 57.2163 4.97371e-05
rclavicle 2.41047e-14 -6.11496e-15 2.61053e-32
rhumerus -57.8822 50.8904 -110.17
rradius 114.101 0 0
rwrist -84.6697 0 0
rhand 4.62913 -26.9611 -5.43222e-05
rfingers 7.12502 0 0
rthumb 30.0162 -54.5454 -3.3554e-05
2756
root -5.58849 13.9298 -28.4274 162.032 -65.2048 -161.103
lfemur -59.4951 42.9848 -6.33127
ltibia 67.9199 0 0
lfoot -2.45151 -1.33564 0.000582552
ltoes -31.359 0 0
rfemur -30.8842 -18.5782 21.6863
rtibia 81.7863 0 0
rfoot -35.0716 -24.7755 0.00201778
rtoes -14.5886 0 0
lowerback 15.733 5.82274 0.539283
upperback -4.02501 8.12605 1.48609
thorax -13.4725 3.80404 -0.850623
lowerneck -2.40062 9.61801 2.06317
upperneck 7.51397 12.5792 1.98171
head 2.80633 6.34985 0.686743
lclavicle 2.41164e-14 -6.09724e-15 2.80116e-32
lhumerus 3.55217 10.6963 83.9479
lradius 94.7871 0 0
lwrist -19.1755 0 0
lhand -39.8022 27.6278 5.42218e-05
lfingers 7.12502 0 0
lthumb -12.7771 57.2175 5.22419e-05
rclavicle 2.41164e-14 -6.09724e-15 2.80116e-32
rhumerus -57.8876 50.8838 -110.174
rradius 114.101 0 0
rwrist -84.6667 0 0
rhand 4.63593 -26.9576 -4.30289e-05
rfingers 7.12502 0 0
rthumb 30.0227 -54.5408 -1.75914e-05
